<svg preserveAspectRatio="none" overflow="visible" style="display: block;" width="180" height="58.3851" viewBox="0 0 180 58.3851" fill="none" xmlns="http://www.w3.org/2000/svg">
<g id="text">
<path id="Vector" d="M11.4779 12.0777C10.3819 12.0777 9.44535 11.8341 8.68813 11.3266C7.93091 10.8192 7.39288 10.129 7.09398 9.27647L8.96711 8.16004C9.4055 9.31706 10.2624 9.90572 11.5377 9.90572C12.1554 9.90572 12.6137 9.78393 12.8927 9.56065C13.1717 9.33736 13.3311 9.05318 13.3311 8.70811C13.3311 8.30214 13.1518 7.99766 12.813 7.77437C12.4543 7.55109 11.8366 7.3075 10.9399 7.04362C10.4417 6.90153 10.0232 6.73914 9.66455 6.59705C9.32579 6.43466 8.96711 6.25197 8.62835 5.98809C8.28959 5.7445 8.01061 5.41973 7.83127 5.01376C7.65193 4.60779 7.55229 4.16122 7.55229 3.65376C7.55229 2.61853 7.91098 1.80657 8.62835 1.19761C9.34572 0.588653 10.2026 0.28418 11.2189 0.28418C12.1156 0.28418 12.9126 0.507468 13.6101 0.954038C14.3075 1.40061 14.8256 2.02986 15.2042 2.82151L13.351 3.91763C12.9126 2.9433 12.1953 2.45613 11.2189 2.45613C10.7605 2.45613 10.4018 2.55763 10.1428 2.78092C9.88375 2.9839 9.74426 3.26807 9.74426 3.59285C9.74426 3.95822 9.88375 4.2424 10.1826 4.46569C10.4816 4.68897 11.0395 4.93256 11.8565 5.19644C12.1953 5.29793 12.4543 5.37913 12.6337 5.44003C12.813 5.50093 13.0521 5.58212 13.351 5.72421C13.6499 5.8663 13.8891 5.96779 14.0485 6.06928C14.2079 6.17077 14.4072 6.33317 14.6064 6.51585C14.8256 6.69854 14.985 6.88123 15.0847 7.08421C15.2042 7.2872 15.2839 7.51048 15.3637 7.79466C15.4434 8.07884 15.4832 8.36303 15.4832 8.68781C15.4832 9.74333 15.1046 10.5756 14.3673 11.1845C13.6101 11.7935 12.6337 12.1183 11.438 12.1183L11.4779 12.0777Z" fill="white"/>
<path id="Vector_2" d="M18.8312 8.64775C19.1102 9.66269 19.8475 10.1702 21.083 10.1702C21.8601 10.1702 22.4579 9.90627 22.8764 9.3582L24.5303 10.3325C23.7532 11.4895 22.5775 12.0782 21.0631 12.0782C19.7479 12.0782 18.6918 11.6722 17.8947 10.8603C17.0976 10.0484 16.6991 9.03342 16.6991 7.7952C16.6991 6.55698 17.0976 5.54207 17.8747 4.73012C18.6519 3.91818 19.6682 3.51221 20.9036 3.51221C22.0793 3.51221 23.0358 3.91817 23.793 4.75041C24.5503 5.58265 24.9289 6.59758 24.9289 7.7952C24.9289 8.05908 24.909 8.34328 24.8492 8.64775H18.8312ZM18.7914 7.02386H22.8565C22.7369 6.4758 22.4978 6.06982 22.1391 5.78564C21.7804 5.52176 21.362 5.37968 20.8837 5.37968C20.3258 5.37968 19.8674 5.52176 19.5088 5.80594C19.1501 6.09013 18.9109 6.49609 18.7914 7.02386Z" fill="white"/>
<path id="Vector_3" d="M30.0897 12.0782C28.8941 12.0782 27.8778 11.6722 27.0808 10.84C26.2837 10.0077 25.8852 8.99282 25.8852 7.7952C25.8852 6.59758 26.2837 5.56235 27.0808 4.75041C27.8778 3.91817 28.8941 3.51221 30.0897 3.51221C30.8669 3.51221 31.5643 3.69489 32.202 4.08057C32.8397 4.46624 33.3179 4.9737 33.6567 5.60296L31.8832 6.65848C31.7237 6.31341 31.4846 6.04953 31.1658 5.86684C30.847 5.68415 30.4684 5.58266 30.0698 5.58266C29.4521 5.58266 28.934 5.78564 28.5354 6.21191C28.1369 6.63818 27.9376 7.16595 27.9376 7.8155C27.9376 8.46506 28.1369 8.99282 28.5354 9.39879C28.934 9.82506 29.4521 10.0281 30.0698 10.0281C30.4883 10.0281 30.847 9.92657 31.1857 9.74388C31.5046 9.56119 31.7437 9.29731 31.9031 8.95224L33.6965 9.98746C33.3378 10.6167 32.8596 11.1445 32.2219 11.5302C31.5843 11.9158 30.8868 12.0985 30.1097 12.0985L30.0897 12.0782Z" fill="white"/>
<path id="Vector_4" d="M40.0933 3.73495H42.1458V11.8544H40.0933V10.941C39.5952 11.692 38.7981 12.0777 37.722 12.0777C36.8452 12.0777 36.1279 11.7732 35.5699 11.1846C34.992 10.5959 34.7131 9.76365 34.7131 8.70812V3.71466H36.7655V8.44424C36.7655 8.9923 36.905 9.39826 37.2039 9.68244C37.4829 9.96662 37.8814 10.1087 38.3597 10.1087C38.8977 10.1087 39.3162 9.94634 39.635 9.60126C39.9538 9.25619 40.1133 8.76901 40.1133 8.09915V3.71466L40.0933 3.73495Z" fill="white"/>
<path id="Vector_5" d="M46.0911 5.1156C46.2904 4.58783 46.5893 4.20217 47.0476 3.93829C47.486 3.67441 47.9842 3.55261 48.5222 3.55261V5.88696C47.9045 5.80576 47.3266 5.94784 46.8483 6.27262C46.3502 6.6177 46.111 7.16577 46.111 7.93712V11.8141H44.0586V3.6947H46.111V5.09531L46.0911 5.1156Z" fill="white"/>
<path id="Vector_6" d="M51.1326 8.64775C51.4115 9.66269 52.1488 10.1702 53.3843 10.1702C54.1615 10.1702 54.7593 9.90627 55.1777 9.3582L56.8317 10.3325C56.0545 11.4895 54.8788 12.0782 53.3644 12.0782C52.0492 12.0782 50.9931 11.6722 50.196 10.8603C49.3989 10.0484 49.0004 9.03342 49.0004 7.7952C49.0004 6.55698 49.3989 5.54207 50.1761 4.73012C50.9532 3.91818 51.9695 3.51221 53.205 3.51221C54.3807 3.51221 55.3372 3.91817 56.0944 4.75041C56.8516 5.58265 57.2302 6.59758 57.2302 7.7952C57.2302 8.05908 57.2103 8.34328 57.1505 8.64775H51.1326ZM51.1126 7.02386H55.1777C55.0582 6.4758 54.8191 6.06982 54.4604 5.78564C54.1017 5.52176 53.6832 5.37968 53.205 5.37968C52.647 5.37968 52.1887 5.52176 51.83 5.80594C51.4713 6.09013 51.2322 6.49609 51.1126 7.02386Z" fill="white"/>
<path id="Vector_7" d="M69.0869 0.486877H71.2789V11.8541H69.0869V7.14482H64.9421V11.8541H62.7502V0.486877H64.9421V4.99317H69.0869V0.486877Z" fill="white"/>
<path id="Vector_8" d="M74.2677 2.74015C73.929 2.74015 73.6301 2.61837 73.3909 2.35449C73.1518 2.0906 73.0123 1.80642 73.0123 1.46134C73.0123 1.11626 73.1319 0.811777 73.3909 0.547895C73.6301 0.284013 73.929 0.162231 74.2677 0.162231C74.6065 0.162231 74.9253 0.284013 75.1644 0.547895C75.4235 0.811777 75.543 1.11626 75.543 1.46134C75.543 1.80642 75.4235 2.1109 75.1644 2.35449C74.9253 2.59807 74.6065 2.74015 74.2677 2.74015ZM73.2514 11.8542V3.73478H75.3039V11.8542H73.2514Z" fill="white"/>
<path id="Vector_9" d="M86.0048 3.49162C86.9215 3.49162 87.6588 3.79609 88.1968 4.40505C88.7348 5.01401 89.0138 5.82596 89.0138 6.84089V11.8343H86.9613V6.98298C86.9613 6.49581 86.8418 6.11013 86.6027 5.84625C86.3635 5.58237 86.0447 5.44028 85.6063 5.44028C85.148 5.44028 84.7694 5.60268 84.5103 5.90716C84.2513 6.21164 84.1118 6.6785 84.1118 7.26716V11.8343H82.0593V6.98298C82.0593 6.49581 81.9398 6.11013 81.7006 5.84625C81.4615 5.58237 81.1427 5.44028 80.7043 5.44028C80.246 5.44028 79.8873 5.60268 79.6083 5.90716C79.3293 6.21164 79.2098 6.6785 79.2098 7.26716V11.8343H77.1573V3.7149H79.2098V4.56744C79.688 3.83669 80.4253 3.47131 81.4217 3.47131C82.418 3.47131 83.1154 3.85699 83.5937 4.64864C84.1317 3.87729 84.9089 3.47131 85.965 3.47131L86.0048 3.49162Z" fill="white"/>
<path id="Vector_10" d="M96.825 3.73548H98.8775V11.8549H96.825V10.9009C96.2073 11.6925 95.3504 12.0782 94.2345 12.0782C93.1186 12.0782 92.2617 11.6722 91.5045 10.84C90.7473 10.0077 90.3687 8.99282 90.3687 7.7952C90.3687 6.59758 90.7473 5.58265 91.5045 4.75041C92.2617 3.91817 93.1784 3.51221 94.2345 3.51221C95.3504 3.51221 96.2073 3.91817 96.825 4.68951V3.73548ZM93.0389 9.4394C93.4574 9.86567 93.9755 10.089 94.6131 10.089C95.2508 10.089 95.7689 9.86567 96.2073 9.4394C96.6457 9.01313 96.8449 8.46505 96.8449 7.7952C96.8449 7.12535 96.6257 6.57729 96.2073 6.15102C95.7888 5.72475 95.2508 5.50146 94.6131 5.50146C93.9755 5.50146 93.4574 5.72475 93.0389 6.15102C92.6204 6.57729 92.4212 7.12535 92.4212 7.7952C92.4212 8.46505 92.6204 9.01313 93.0389 9.4394Z" fill="white"/>
<path id="Vector_11" d="M100.75 11.8546V0.000183105H102.803V11.8546H100.75Z" fill="white"/>
<path id="Vector_12" d="M110.734 3.73548H112.787V11.8549H110.734V10.9009C110.116 11.6925 109.259 12.0782 108.144 12.0782C107.028 12.0782 106.171 11.6722 105.414 10.84C104.656 10.0077 104.278 8.99282 104.278 7.7952C104.278 6.59758 104.656 5.58265 105.414 4.75041C106.171 3.91817 107.087 3.51221 108.144 3.51221C109.259 3.51221 110.116 3.91817 110.734 4.68951V3.73548ZM106.948 9.4394C107.366 9.86567 107.885 10.089 108.522 10.089C109.16 10.089 109.678 9.86567 110.116 9.4394C110.555 9.01313 110.754 8.46505 110.754 7.7952C110.754 7.12535 110.535 6.57729 110.116 6.15102C109.698 5.72475 109.16 5.50146 108.522 5.50146C107.885 5.50146 107.366 5.72475 106.948 6.15102C106.529 6.57729 106.33 7.12535 106.33 7.7952C106.33 8.46505 106.529 9.01313 106.948 9.4394Z" fill="white"/>
<path id="Vector_13" d="M119.861 3.73499H122.053L119.143 11.8544C118.725 13.0317 118.187 13.864 117.489 14.3918C116.812 14.9195 115.955 15.1631 114.939 15.1022V13.1536C115.497 13.1536 115.935 13.0521 116.254 12.7882C116.573 12.5446 116.832 12.1386 117.031 11.5906L113.763 3.73499H116.015L118.087 9.19532L119.861 3.73499Z" fill="white"/>
<path id="Vector_14" d="M128.768 3.73548H130.82V11.8549H128.768V10.9009C128.15 11.6925 127.293 12.0782 126.177 12.0782C125.062 12.0782 124.205 11.6722 123.448 10.84C122.69 10.0077 122.312 8.99282 122.312 7.7952C122.312 6.59758 122.69 5.58265 123.448 4.75041C124.205 3.91817 125.121 3.51221 126.177 3.51221C127.293 3.51221 128.15 3.91817 128.768 4.68951V3.73548ZM124.982 9.4394C125.4 9.86567 125.918 10.089 126.556 10.089C127.194 10.089 127.712 9.86567 128.15 9.4394C128.589 9.01313 128.788 8.46505 128.788 7.7952C128.788 7.12535 128.569 6.57729 128.15 6.15102C127.732 5.72475 127.194 5.50146 126.556 5.50146C125.918 5.50146 125.4 5.72475 124.982 6.15102C124.563 6.57729 124.364 7.12535 124.364 7.7952C124.364 8.46505 124.563 9.01313 124.982 9.4394Z" fill="white"/>
<path id="Vector_15" d="M135.404 9.60114L134.208 14.1074H132.534L133.172 9.60114H135.404Z" fill="white"/>
<path id="Vector_16" d="M140.605 11.8544V10.1899L144.411 6.19108C145.268 5.27765 145.686 4.52659 145.686 3.91763C145.686 3.47106 145.547 3.12599 145.287 2.84181C145.009 2.57793 144.67 2.43583 144.251 2.43583C143.414 2.43583 142.797 2.8824 142.378 3.77554L140.525 2.67942C140.884 1.90807 141.382 1.29912 142.039 0.893144C142.697 0.487172 143.414 0.28418 144.211 0.28418C145.228 0.28418 146.085 0.608964 146.802 1.25852C147.519 1.90808 147.878 2.78091 147.878 3.85674C147.878 5.03406 147.26 6.25198 146.045 7.49019L143.853 9.72304H148.037V11.8747H140.585L140.605 11.8544Z" fill="white"/>
<path id="Vector_17" d="M153.497 12.0776C152.103 12.0776 151.007 11.5295 150.229 10.4537C149.432 9.37788 149.034 7.93668 149.034 6.1504C149.034 4.36412 149.432 2.94323 150.229 1.8471C151.026 0.771274 152.122 0.223206 153.497 0.223206C154.872 0.223206 155.988 0.771274 156.785 1.8471C157.563 2.92293 157.961 4.36412 157.961 6.1504C157.961 7.93668 157.563 9.35758 156.785 10.4537C156.008 11.5295 154.912 12.0776 153.497 12.0776ZM151.804 8.93131C152.182 9.56057 152.74 9.88535 153.497 9.88535C154.255 9.88535 154.813 9.56057 155.191 8.93131C155.57 8.30206 155.769 7.36832 155.769 6.1707C155.769 4.97308 155.57 4.03934 155.191 3.38978C154.813 2.74023 154.235 2.43575 153.497 2.43575C152.76 2.43575 152.182 2.76053 151.804 3.38978C151.425 4.01904 151.226 4.95278 151.226 6.1707C151.226 7.38862 151.425 8.30206 151.804 8.93131Z" fill="white"/>
<path id="Vector_18" d="M161.309 0.486877H163.222V11.8541H161.03V2.86183L158.917 3.47078L158.379 1.5627L161.309 0.50718V0.486877Z" fill="white"/>
<path id="Vector_19" d="M171.352 5.92713C172.388 6.55639 172.906 7.46982 172.906 8.66744C172.906 9.72297 172.548 10.5349 171.83 11.1439C171.113 11.7528 170.136 12.0573 168.901 12.0573C167.665 12.0573 166.669 11.7528 165.972 11.1439C165.274 10.5349 164.896 9.70267 164.896 8.66744C164.896 7.46982 165.414 6.55639 166.43 5.92713C165.653 5.35877 165.274 4.56713 165.274 3.5725C165.274 2.51697 165.613 1.70503 166.31 1.11637C167.008 0.527711 167.865 0.24353 168.901 0.24353C169.937 0.24353 170.794 0.527711 171.491 1.11637C172.189 1.70503 172.528 2.51697 172.528 3.5725C172.528 4.62803 172.149 5.35877 171.372 5.92713H171.352ZM167.586 9.54028C167.924 9.82446 168.363 9.94627 168.901 9.94627C169.439 9.94627 169.877 9.80417 170.216 9.54028C170.555 9.2764 170.714 8.87043 170.714 8.38326C170.714 7.8961 170.555 7.51043 170.216 7.24655C169.877 6.96237 169.439 6.84058 168.901 6.84058C168.363 6.84058 167.924 6.98266 167.586 7.24655C167.247 7.53073 167.088 7.8961 167.088 8.38326C167.088 8.87043 167.247 9.2764 167.586 9.54028ZM169.937 2.71995C169.678 2.47636 169.319 2.35459 168.901 2.35459C168.482 2.35459 168.124 2.47636 167.865 2.71995C167.606 2.96353 167.466 3.28832 167.466 3.69429C167.466 4.10026 167.606 4.42505 167.865 4.66863C168.124 4.91221 168.482 5.034 168.901 5.034C169.319 5.034 169.678 4.91221 169.937 4.66863C170.196 4.42505 170.336 4.10026 170.336 3.69429C170.336 3.28832 170.196 2.96353 169.937 2.71995Z" fill="white"/>
<path id="Vector_20" d="M21.7205 32.8841L18.5123 21.5169H20.0666L22.6172 30.8746L25.3273 21.5169H26.8218L29.5319 30.8746L32.0825 21.5169H33.6368L30.4286 32.8841H28.7149L26.0646 23.8107L23.4143 32.8841H21.7006H21.7205Z" fill="white"/>
<path id="Vector_21" d="M35.5097 23.2827C35.2507 23.2827 35.0116 23.1812 34.8322 22.9985C34.6529 22.8158 34.5532 22.5926 34.5532 22.3287C34.5532 22.0648 34.6329 21.8415 34.8322 21.6588C35.0116 21.4761 35.2308 21.3746 35.5097 21.3746C35.7887 21.3746 35.988 21.4761 36.1673 21.6588C36.3467 21.8415 36.4463 22.0648 36.4463 22.3287C36.4463 22.5926 36.3666 22.8158 36.1673 22.9985C35.9681 23.1812 35.7688 23.2827 35.5097 23.2827ZM34.7924 32.8839V24.7645H36.1872V32.8839H34.7924Z" fill="white"/>
<path id="Vector_22" d="M42.2851 24.5612C43.2216 24.5612 43.9789 24.8657 44.5368 25.4543C45.0948 26.0633 45.3737 26.8752 45.3737 27.8902V32.8836H43.9789V27.9714C43.9789 27.3015 43.7995 26.794 43.4608 26.4287C43.1021 26.0633 42.6238 25.8806 42.0061 25.8806C41.3086 25.8806 40.7507 26.1039 40.3322 26.5302C39.9138 26.9564 39.6946 27.6466 39.6946 28.56V32.8633H38.2997V24.7439H39.6946V25.9212C40.2525 25.0078 41.1094 24.5409 42.2851 24.5409V24.5612Z" fill="white"/>
<path id="Vector_23" d="M51.2721 24.5612C52.2086 24.5612 52.9658 24.8657 53.5238 25.4543C54.0818 26.0633 54.3607 26.8752 54.3607 27.8902V32.8836H52.9658V27.9714C52.9658 27.3015 52.7865 26.794 52.4477 26.4287C52.0891 26.0633 51.6108 25.8806 50.9931 25.8806C50.2956 25.8806 49.7377 26.1039 49.3192 26.5302C48.9008 26.9564 48.6816 27.6466 48.6816 28.56V32.8633H47.2867V24.7439H48.6816V25.9212C49.2395 25.0078 50.0964 24.5409 51.2721 24.5409V24.5612Z" fill="white"/>
<path id="Vector_24" d="M57.2701 29.4735C57.4096 30.2042 57.7284 30.7523 58.2465 31.1583C58.7646 31.5642 59.4023 31.7672 60.1595 31.7672C61.2156 31.7672 61.9728 31.3613 62.4511 30.5899L63.6268 31.2801C62.8496 32.498 61.6739 33.1069 60.1196 33.1069C58.8642 33.1069 57.828 32.701 57.031 31.889C56.2339 31.0771 55.8353 30.0621 55.8353 28.8239C55.8353 27.5857 56.2339 26.5911 56.9911 25.7791C57.7682 24.9672 58.7646 24.5612 60.0001 24.5612C61.1758 24.5612 62.1123 24.9875 62.8695 25.8197C63.6068 26.652 63.9855 27.6669 63.9855 28.8442C63.9855 29.0472 63.9855 29.2705 63.9456 29.4735H57.2701ZM60.02 25.8806C59.2827 25.8806 58.665 26.1039 58.1668 26.5302C57.6686 26.9565 57.3697 27.5248 57.2501 28.2353H62.5706C62.4511 27.4639 62.1522 26.8753 61.6739 26.4896C61.1957 26.1039 60.6377 25.8806 60.0001 25.8806H60.02Z" fill="white"/>
<path id="Vector_25" d="M66.9744 26.1243C67.4328 25.1094 68.2697 24.6222 69.4653 24.6222V26.104C68.7878 26.0634 68.2099 26.2461 67.7117 26.6521C67.2136 27.058 66.9744 27.6873 66.9744 28.5804V32.8837H65.5796V24.7643H66.9744V26.1243Z" fill="white"/>
<path id="Vector_26" d="M71.7569 31.2192L70.7207 35.1572H69.525L70.1627 31.2192H71.7569Z" fill="white"/>
<path id="Vector_27" d="M84.2908 24.7642H85.6857V32.8836H84.2908V31.4831C83.5934 32.5589 82.597 33.0866 81.2819 33.0866C80.1659 33.0866 79.2095 32.6807 78.4323 31.8484C77.6352 31.0162 77.2566 30.0012 77.2566 28.8239C77.2566 27.6466 77.6552 26.6317 78.4323 25.7994C79.2095 24.9672 80.1659 24.5612 81.2819 24.5612C82.597 24.5612 83.6133 25.089 84.2908 26.1648V24.7642ZM81.4612 31.7266C82.2782 31.7266 82.9358 31.4425 83.4937 30.8944C84.0318 30.3463 84.3108 29.6562 84.3108 28.8239C84.3108 27.9917 84.0318 27.3015 83.4937 26.7535C82.9557 26.1851 82.2782 25.9212 81.4612 25.9212C80.6442 25.9212 79.9866 26.2054 79.4486 26.7535C78.9105 27.3015 78.6316 27.9917 78.6316 28.8239C78.6316 29.6562 78.9105 30.3463 79.4486 30.8944C79.9866 31.4628 80.6641 31.7266 81.4612 31.7266Z" fill="white"/>
<path id="Vector_28" d="M91.7637 24.5612C92.7003 24.5612 93.4575 24.8657 94.0155 25.4543C94.5734 26.0633 94.8524 26.8752 94.8524 27.8902V32.8836H93.4575V27.9714C93.4575 27.3015 93.2782 26.794 92.9394 26.4287C92.5807 26.0633 92.1025 25.8806 91.4847 25.8806C90.7873 25.8806 90.2293 26.1039 89.8109 26.5302C89.3924 26.9564 89.1732 27.6466 89.1732 28.56V32.8633H87.7783V24.7439H89.1732V25.9212C89.7312 25.0078 90.588 24.5409 91.7637 24.5409V24.5612Z" fill="white"/>
<path id="Vector_29" d="M101.468 23.2827C101.209 23.2827 100.97 23.1812 100.79 22.9985C100.611 22.8158 100.511 22.5926 100.511 22.3287C100.511 22.0648 100.591 21.8415 100.79 21.6588C100.97 21.4761 101.189 21.3746 101.468 21.3746C101.747 21.3746 101.946 21.4761 102.125 21.6588C102.305 21.8415 102.404 22.0648 102.404 22.3287C102.404 22.5926 102.325 22.8158 102.125 22.9985C101.926 23.1812 101.727 23.2827 101.468 23.2827ZM100.77 32.8839V24.7645H102.165V32.8839H100.77Z" fill="white"/>
<path id="Vector_30" d="M108.243 24.5612C109.18 24.5612 109.937 24.8657 110.495 25.4543C111.053 26.0633 111.332 26.8752 111.332 27.8902V32.8836H109.937V27.9714C109.937 27.3015 109.758 26.794 109.419 26.4287C109.06 26.0633 108.582 25.8806 107.964 25.8806C107.267 25.8806 106.709 26.1039 106.29 26.5302C105.872 26.9564 105.653 27.6466 105.653 28.56V32.8633H104.258V24.7439H105.653V25.9212C106.211 25.0078 107.068 24.5409 108.243 24.5409V24.5612Z" fill="white"/>
<path id="Vector_31" d="M113.962 23.2827C113.703 23.2827 113.464 23.1812 113.285 22.9985C113.105 22.8158 113.006 22.5926 113.006 22.3287C113.006 22.0648 113.085 21.8415 113.285 21.6588C113.464 21.4761 113.683 21.3746 113.962 21.3746C114.241 21.3746 114.44 21.4761 114.62 21.6588C114.799 21.8415 114.899 22.0648 114.899 22.3287C114.899 22.5926 114.819 22.8158 114.62 22.9985C114.42 23.1812 114.221 23.2827 113.962 23.2827ZM113.265 32.8839V24.7645H114.66V32.8839H113.265Z" fill="white"/>
<path id="Vector_32" d="M121.116 26.1243H119.004V30.5291C119.004 30.9351 119.083 31.2192 119.243 31.3816C119.402 31.544 119.641 31.6455 119.96 31.6455C120.279 31.6455 120.678 31.6455 121.136 31.6252V32.8837C119.92 33.0461 119.044 32.9446 118.466 32.5793C117.908 32.2139 117.629 31.5237 117.629 30.5291V26.1243H116.055V24.7643H117.629V22.9171L119.024 22.4908V24.7643H121.136V26.1243H121.116Z" fill="white"/>
<path id="Vector_33" d="M123.447 23.2827C123.188 23.2827 122.949 23.1812 122.77 22.9985C122.59 22.8158 122.491 22.5926 122.491 22.3287C122.491 22.0648 122.571 21.8415 122.77 21.6588C122.949 21.4761 123.168 21.3746 123.447 21.3746C123.726 21.3746 123.926 21.4761 124.105 21.6588C124.284 21.8415 124.384 22.0648 124.384 22.3287C124.384 22.5926 124.304 22.8158 124.105 22.9985C123.906 23.1812 123.706 23.2827 123.447 23.2827ZM122.75 32.8839V24.7645H124.145V32.8839H122.75Z" fill="white"/>
<path id="Vector_34" d="M132.853 24.7642H134.248V32.8836H132.853V31.4831C132.155 32.5589 131.159 33.0866 129.844 33.0866C128.728 33.0866 127.771 32.6807 126.994 31.8484C126.197 31.0162 125.819 30.0012 125.819 28.8239C125.819 27.6466 126.217 26.6317 126.994 25.7994C127.771 24.9672 128.728 24.5612 129.844 24.5612C131.159 24.5612 132.175 25.089 132.853 26.1648V24.7642ZM130.023 31.7266C130.84 31.7266 131.498 31.4425 132.056 30.8944C132.594 30.3463 132.873 29.6562 132.873 28.8239C132.873 27.9917 132.594 27.3015 132.056 26.7535C131.518 26.1851 130.84 25.9212 130.023 25.9212C129.206 25.9212 128.549 26.2054 128.011 26.7535C127.473 27.3015 127.194 27.9917 127.194 28.8239C127.194 29.6562 127.473 30.3463 128.011 30.8944C128.549 31.4628 129.226 31.7266 130.023 31.7266Z" fill="white"/>
<path id="Vector_35" d="M140.684 26.1243H138.572V30.5291C138.572 30.9351 138.651 31.2192 138.811 31.3816C138.97 31.544 139.209 31.6455 139.528 31.6455C139.847 31.6455 140.246 31.6455 140.704 31.6252V32.8837C139.488 33.0461 138.612 32.9446 138.034 32.5793C137.476 32.2139 137.197 31.5237 137.197 30.5291V26.1243H135.623V24.7643H137.197V22.9171L138.592 22.4908V24.7643H140.704V26.1243H140.684Z" fill="white"/>
<path id="Vector_36" d="M143.035 23.2827C142.776 23.2827 142.537 23.1812 142.358 22.9985C142.179 22.8158 142.079 22.5926 142.079 22.3287C142.079 22.0648 142.159 21.8415 142.358 21.6588C142.537 21.4761 142.756 21.3746 143.035 21.3746C143.314 21.3746 143.514 21.4761 143.693 21.6588C143.872 21.8415 143.972 22.0648 143.972 22.3287C143.972 22.5926 143.892 22.8158 143.693 22.9985C143.494 23.1812 143.295 23.2827 143.035 23.2827ZM142.318 32.8839V24.7645H143.713V32.8839H142.318Z" fill="white"/>
<path id="Vector_37" d="M151.405 24.7645H152.899L149.711 32.8839H148.077L144.889 24.7645H146.383L148.894 31.3818L151.405 24.7645Z" fill="white"/>
<path id="Vector_38" d="M154.733 29.4735C154.872 30.2042 155.191 30.7523 155.709 31.1583C156.227 31.5642 156.865 31.7672 157.622 31.7672C158.678 31.7672 159.435 31.3613 159.914 30.5899L161.089 31.2801C160.312 32.498 159.137 33.1069 157.582 33.1069C156.327 33.1069 155.291 32.701 154.494 31.889C153.697 31.0771 153.298 30.0621 153.298 28.8239C153.298 27.5857 153.697 26.5911 154.454 25.7791C155.231 24.9672 156.227 24.5612 157.463 24.5612C158.638 24.5612 159.575 24.9875 160.332 25.8197C161.069 26.652 161.448 27.6669 161.448 28.8442C161.448 29.0472 161.448 29.2705 161.408 29.4735H154.733ZM157.503 25.8806C156.765 25.8806 156.148 26.1039 155.649 26.5302C155.151 26.9565 154.852 27.5248 154.733 28.2353H160.053C159.934 27.4639 159.635 26.8753 159.157 26.4896C158.678 26.1039 158.12 25.8806 157.483 25.8806H157.503Z" fill="white"/>
<path id="Vector_39" d="M4.40385 46.7898C5.51976 46.7898 6.47625 47.1958 7.2534 48.028C8.03055 48.8602 8.42909 49.8752 8.42909 51.0525C8.42909 52.2298 8.03055 53.2447 7.2534 54.077C6.47625 54.9092 5.51976 55.3152 4.40385 55.3152C3.08867 55.3152 2.0724 54.7874 1.39489 53.7116V55.1122H0V43.745H1.39489V48.3934C2.09233 47.3175 3.08867 46.7898 4.40385 46.7898ZM4.22451 53.9755C5.02159 53.9755 5.6991 53.6913 6.23713 53.1432C6.77516 52.5952 7.05413 51.905 7.05413 51.0728C7.05413 50.2406 6.77516 49.5504 6.23713 49.0023C5.6991 48.434 5.02159 48.1701 4.22451 48.1701C3.42743 48.1701 2.74992 48.4543 2.19196 49.0023C1.65394 49.5504 1.37496 50.2406 1.37496 51.0728C1.37496 51.905 1.65394 52.5952 2.19196 53.1432C2.72999 53.7116 3.40751 53.9755 4.22451 53.9755Z" fill="white"/>
<path id="Vector_40" d="M15.3438 46.9926H16.8184L13.5704 55.6195C13.2316 56.5329 12.7533 57.2434 12.1356 57.7305C11.5179 58.2177 10.8204 58.4207 10.0234 58.3801V57.0607C10.9998 57.1419 11.7171 56.5735 12.1755 55.3962L12.315 55.0917L8.84767 47.0129H10.3223L13.0323 53.3866L15.3239 47.0129L15.3438 46.9926Z" fill="white"/>
<path id="Vector_41" d="M32.8794 49.4887V50.1789C32.8794 51.6607 32.3812 52.8989 31.3848 53.8732C30.3885 54.8476 29.0534 55.3347 27.4194 55.3347C25.7854 55.3347 24.3108 54.7664 23.1949 53.6296C22.079 52.4929 21.521 51.0923 21.521 49.4481C21.521 47.8039 22.079 46.4033 23.1949 45.2666C24.3108 44.1299 25.7057 43.5615 27.3795 43.5615C28.4157 43.5615 29.3523 43.8051 30.2092 44.3126C31.066 44.82 31.7435 45.4899 32.2018 46.3018L30.9265 47.0732C30.6077 46.4642 30.1294 45.9568 29.4918 45.5914C28.8541 45.226 28.1368 45.023 27.3596 45.023C26.0843 45.023 25.0282 45.4493 24.2111 46.3018C23.3941 47.1544 22.9757 48.2099 22.9757 49.4684C22.9757 50.7269 23.3941 51.7825 24.2111 52.6147C25.0282 53.4469 26.1042 53.8732 27.3995 53.8732C28.5154 53.8732 29.4121 53.589 30.1095 53.041C30.807 52.4929 31.2254 51.7622 31.3649 50.869H27.26V49.509H32.8395L32.8794 49.4887Z" fill="white"/>
<path id="Vector_42" d="M41.2486 54.0962C40.4316 54.9285 39.4353 55.3345 38.2596 55.3345C37.0839 55.3345 36.1075 54.9285 35.2905 54.0962C34.4735 53.264 34.0749 52.2694 34.0749 51.0514C34.0749 49.8335 34.4735 48.8389 35.2905 48.0066C36.1075 47.1744 37.1038 46.7684 38.2596 46.7684C39.4153 46.7684 40.4117 47.1744 41.2486 48.0066C42.0656 48.8389 42.4841 49.8335 42.4841 51.0514C42.4841 52.2694 42.0656 53.264 41.2486 54.0962ZM38.2795 53.9541C39.0766 53.9541 39.7541 53.67 40.2921 53.1219C40.8301 52.5738 41.1091 51.8837 41.1091 51.0514C41.1091 50.2192 40.8301 49.5493 40.2921 48.981C39.7541 48.4329 39.0766 48.1487 38.2795 48.1487C37.4824 48.1487 36.8248 48.4329 36.2868 48.981C35.7488 49.529 35.4698 50.2192 35.4698 51.0514C35.4698 51.8837 35.7488 52.5535 36.2868 53.1219C36.8248 53.67 37.5024 53.9541 38.2795 53.9541Z" fill="white"/>
<path id="Vector_43" d="M49.379 46.9926H50.8735L47.6852 55.112H46.0512L42.8629 46.9926H44.3574L46.8682 53.6099L49.379 46.9926Z" fill="white"/>
<path id="Vector_44" d="M56.3931 48.3722H54.2809V52.777C54.2809 53.1829 54.3606 53.4671 54.52 53.6295C54.6794 53.7919 54.9185 53.8934 55.2374 53.8934C55.5562 53.8934 55.9547 53.8934 56.4131 53.8731V55.1316C55.1975 55.294 54.3207 55.1925 53.7429 54.8271C53.1849 54.4617 52.9059 53.7716 52.9059 52.777V48.3722H51.3317V47.0122H52.9059V45.165L54.3008 44.7387V47.0122H56.4131V48.3722H56.3931Z" fill="white"/>
<path id="Vector_45" d="M58.964 55.295C58.685 55.295 58.426 55.1935 58.2267 54.9905C58.0275 54.7875 57.9278 54.5439 57.9278 54.2394C57.9278 53.935 58.0275 53.6914 58.2267 53.4884C58.426 53.2854 58.6651 53.1839 58.964 53.1839C59.2629 53.1839 59.502 53.2854 59.7013 53.4884C59.9006 53.6914 60.0002 53.935 60.0002 54.2394C60.0002 54.5439 59.9006 54.7875 59.7013 54.9905C59.502 55.1935 59.2629 55.295 58.964 55.295Z" fill="white"/>
<path id="Vector_46" d="M72.6733 54.0962C71.8563 54.9285 70.8599 55.3345 69.6842 55.3345C68.5085 55.3345 67.5321 54.9285 66.7151 54.0962C65.8981 53.264 65.4996 52.2694 65.4996 51.0514C65.4996 49.8335 65.8981 48.8389 66.7151 48.0066C67.5321 47.1744 68.5285 46.7684 69.6842 46.7684C70.84 46.7684 71.8363 47.1744 72.6733 48.0066C73.4903 48.8389 73.9087 49.8335 73.9087 51.0514C73.9087 52.2694 73.4903 53.264 72.6733 54.0962ZM69.7041 53.9541C70.5012 53.9541 71.1787 53.67 71.7168 53.1219C72.2548 52.5738 72.5338 51.8837 72.5338 51.0514C72.5338 50.2192 72.2548 49.5493 71.7168 48.981C71.1787 48.4329 70.5012 48.1487 69.7041 48.1487C68.9071 48.1487 68.2495 48.4329 67.7114 48.981C67.1734 49.529 66.8944 50.2192 66.8944 51.0514C66.8944 51.8837 67.1734 52.5535 67.7114 53.1219C68.2495 53.67 68.927 53.9541 69.7041 53.9541Z" fill="white"/>
<path id="Vector_47" d="M79.3492 44.9005C77.9543 44.7787 77.237 45.408 77.237 46.7477V46.9913H79.3492V48.3513H77.237V55.1107H75.8421V48.3513H74.5668V46.9913H75.8421V46.7477C75.8421 45.6516 76.141 44.8193 76.7388 44.2712C77.3366 43.7029 78.1935 43.4593 79.3293 43.5405V44.9005H79.3492Z" fill="white"/>
<path id="Vector_48" d="M84.5301 43.745H86.0047V55.1122H84.5301V43.745Z" fill="white"/>
<path id="Vector_49" d="M92.2219 46.7887C93.1585 46.7887 93.9157 47.0932 94.4737 47.6819C95.0316 48.2908 95.3106 49.1028 95.3106 50.1177V55.1112H93.9157V50.1989C93.9157 49.529 93.7364 49.0216 93.3976 48.6562C93.0389 48.2908 92.5607 48.1081 91.943 48.1081C91.2455 48.1081 90.6876 48.3314 90.2691 48.7577C89.8506 49.184 89.6314 49.8741 89.6314 50.7875V55.0909H88.2366V46.9714H89.6314V48.1487C90.1894 47.2353 91.0463 46.7684 92.2219 46.7684V46.7887Z" fill="white"/>
<path id="Vector_50" d="M103.839 43.745H105.234V55.1122H103.839V53.7116C103.142 54.7874 102.145 55.3152 100.83 55.3152C99.7143 55.3152 98.7578 54.9092 97.9806 54.077C97.1836 53.2447 96.805 52.2298 96.805 51.0525C96.805 49.8752 97.2035 48.8602 97.9806 48.028C98.7578 47.1958 99.7143 46.7898 100.83 46.7898C102.145 46.7898 103.162 47.3175 103.839 48.3934V43.745ZM101.01 53.9755C101.827 53.9755 102.484 53.6913 103.042 53.1432C103.58 52.5952 103.859 51.905 103.859 51.0728C103.859 50.2406 103.58 49.5504 103.042 49.0023C102.504 48.434 101.827 48.1701 101.01 48.1701C100.193 48.1701 99.5349 48.4543 98.9969 49.0023C98.4589 49.5504 98.1799 50.2406 98.1799 51.0728C98.1799 51.905 98.4589 52.5952 98.9969 53.1432C99.5349 53.7116 100.212 53.9755 101.01 53.9755Z" fill="white"/>
<path id="Vector_51" d="M108.024 45.5295C107.765 45.5295 107.526 45.428 107.346 45.2453C107.167 45.0626 107.067 44.8393 107.067 44.5754C107.067 44.3116 107.147 44.0883 107.346 43.9056C107.526 43.7229 107.745 43.6214 108.024 43.6214C108.303 43.6214 108.502 43.7229 108.681 43.9056C108.861 44.0883 108.96 44.3116 108.96 44.5754C108.96 44.8393 108.881 45.0626 108.681 45.2453C108.482 45.428 108.283 45.5295 108.024 45.5295ZM107.326 55.1104V46.991H108.721V55.1104H107.326Z" fill="white"/>
<path id="Vector_52" d="M117.43 46.9925H118.824V55.112H117.43V53.7114C116.732 54.7872 115.736 55.315 114.421 55.315C113.305 55.315 112.348 54.909 111.571 54.0767C110.774 53.2445 110.395 52.2296 110.395 51.0523C110.395 49.8749 110.794 48.86 111.571 48.0278C112.348 47.1955 113.305 46.7896 114.421 46.7896C115.736 46.7896 116.752 47.3173 117.43 48.3931V46.9925ZM114.6 53.9752C115.417 53.9752 116.075 53.6911 116.632 53.143C117.171 52.5949 117.449 51.9048 117.449 51.0726C117.449 50.2403 117.171 49.5502 116.632 49.0021C116.094 48.4337 115.417 48.1699 114.6 48.1699C113.783 48.1699 113.125 48.454 112.587 49.0021C112.049 49.5502 111.77 50.2403 111.77 51.0726C111.77 51.9048 112.049 52.5949 112.587 53.143C113.125 53.7114 113.803 53.9752 114.6 53.9752Z" fill="white"/>
<path id="Vector_53" d="M134.048 54.6439L132.813 55.3747L131.677 54.1365C130.84 54.9281 129.784 55.3138 128.489 55.3138C127.373 55.3138 126.476 55.0296 125.779 54.4206C125.081 53.8117 124.743 53.0403 124.743 52.0254C124.743 51.3353 124.922 50.6857 125.261 50.1174C125.599 49.5287 126.118 49.0821 126.775 48.737C126.297 48.1281 126.058 47.4379 126.058 46.6666C126.058 45.7328 126.377 44.9615 127.014 44.3728C127.652 43.7842 128.429 43.5 129.326 43.5C130.063 43.5 130.741 43.703 131.358 44.109C131.956 44.5149 132.394 45.0833 132.673 45.814L131.438 46.5448C131.279 46.0373 131.02 45.6516 130.641 45.3675C130.282 45.0833 129.844 44.9412 129.366 44.9412C128.847 44.9412 128.429 45.1036 128.07 45.4081C127.712 45.7126 127.532 46.1185 127.532 46.626C127.532 46.9914 127.612 47.2958 127.771 47.6003C127.931 47.8845 128.19 48.2093 128.509 48.5747L131.558 51.8833C131.817 51.315 132.016 50.6248 132.135 49.8129L133.411 50.5639C133.271 51.4571 132.972 52.269 132.554 52.9794L134.029 54.583L134.048 54.6439ZM128.529 53.8929C129.405 53.8929 130.143 53.629 130.721 53.1013L127.712 49.8129C127.194 50.0362 126.835 50.3406 126.596 50.7263C126.357 51.112 126.237 51.5179 126.237 51.9645C126.237 52.5735 126.436 53.0404 126.835 53.3854C127.233 53.7305 127.811 53.9132 128.529 53.9132V53.8929Z" fill="white"/>
<path id="Vector_54" d="M146.662 54.2383C145.885 54.9691 144.889 55.3344 143.653 55.3344C142.418 55.3344 141.421 54.9691 140.624 54.2383C139.847 53.5076 139.449 52.5332 139.449 51.3153V43.7642H140.923V51.2544C140.923 52.0461 141.162 52.6956 141.621 53.1625C142.079 53.6294 142.756 53.8729 143.633 53.8729C144.51 53.8729 145.168 53.6294 145.646 53.1625C146.124 52.6956 146.343 52.0461 146.343 51.2544V43.7642H147.818V51.3153C147.818 52.5332 147.439 53.5076 146.662 54.2383Z" fill="white"/>
<path id="Vector_55" d="M157.024 43.745H158.499V55.1122H157.303L151.564 46.6274V55.1122H150.09V43.745H151.285L157.024 52.2298V43.745Z" fill="white"/>
<path id="Vector_56" d="M165.254 43.745C166.769 43.745 168.044 44.2931 169.04 45.3892C170.037 46.4853 170.555 47.825 170.555 49.4286C170.555 51.0322 170.057 52.3719 169.04 53.468C168.044 54.5641 166.769 55.1122 165.254 55.1122H160.91V43.745H165.254ZM165.254 53.6913C166.39 53.6913 167.327 53.2853 168.044 52.4734C168.761 51.6614 169.12 50.6465 169.12 49.4286C169.12 48.2107 168.761 47.1958 168.044 46.3838C167.327 45.5719 166.39 45.1659 165.254 45.1659H162.385V53.671H165.254V53.6913Z" fill="white"/>
<path id="Vector_57" d="M176.393 43.745C177.429 43.745 178.286 44.0901 178.964 44.8005C179.641 45.511 180 46.3635 180 47.3987C180 48.434 179.661 49.2865 178.964 49.997C178.266 50.7074 177.429 51.0525 176.393 51.0525H173.823V55.1122H172.348V43.745H176.393ZM176.393 49.6519C177.011 49.6519 177.529 49.4489 177.928 49.0023C178.326 48.5761 178.525 48.0483 178.525 47.3987C178.525 46.7492 178.326 46.2214 177.928 45.7951C177.529 45.3689 177.011 45.1659 176.393 45.1659H173.823V49.6519H176.393Z" fill="white"/>
</g>
</svg>
